<?xml version="1.0" encoding="utf-8"?>
<!-- Generator: Adobe Illustrator 15.0.0, SVG Export Plug-In . SVG Version: 6.00 Build 0)  -->
<!DOCTYPE svg PUBLIC "-//W3C//DTD SVG 1.1//EN" "http://www.w3.org/Graphics/SVG/1.1/DTD/svg11.dtd">
<svg version="1.1" id="Layer_1" xmlns="http://www.w3.org/2000/svg" xmlns:xlink="http://www.w3.org/1999/xlink" x="0px" y="0px"
	 width="442.971px" height="562.527px" viewBox="0 0 442.971 562.527" enable-background="new 0 0 442.971 562.527"
	 xml:space="preserve">
<g id="XMLID_2_">
	<path fill="#010101" d="M435.692,162.111c-10.248-39.453-36.01-77.099-64.572-103.314C336.702,27.199,277.059-5.129,207.538,0.683
		C92.341,10.304-10.781,105.612,0.906,239.599c3.725,42.788,18.081,75.763,43.05,105.467
		c77.269,6.651,112.807-55.832,86.096-126.992c-30.714-8.156-53.445,7.017-53.81,27.982c-0.388,21.351,26.731,28.001,21.523,47.351
		c-29.316,7.275-60.353-22.147-58.114-55.962c2.775-41.907,75.613-75.162,116.23-75.334c73.267-0.322,67.777,69.695,107.62,96.859
		c52.195,35.601,92.467-40.724,129.144-12.915c-20.792,25.269-66.531,61.385-109.773,60.267
		c-27.53-0.712-42.812-19.91-64.573-32.287c-3.206,16.164-13.387,25.354-17.217,40.896c43.993,9.513,95.284,4.692,111.926,40.896
		c11.898,25.913,2.539,59.514,8.606,94.705C379.965,373.563,469.096,290.653,435.692,162.111z M192.727,140.415
		c-24.361,0-44.123-19.09-44.123-42.615c0-23.549,19.762-42.641,44.123-42.641c24.366,0,44.107,19.091,44.107,42.641
		C236.833,121.325,217.093,140.415,192.727,140.415z M333.646,245.538l-58.008-33.146l-0.3-66.811l57.703-33.663l58.028,33.147
		l0.282,66.831L333.646,245.538z M308.7,138.436c15.194,11.343,34.46,18.641,47.351,32.287c1.399,11.515-2.817,28.647,2.154,36.59
		c3.442-3.723,8.049-6.307,12.915-8.609v-38.742C350.478,153.738,328.651,118.676,308.7,138.436z"/>
	<path fill="none" d="M236.833,97.8c0,23.524-19.74,42.615-44.106,42.615c-24.362,0-44.123-19.09-44.123-42.615
		c0-23.549,19.762-42.641,44.123-42.641C217.093,55.16,236.833,74.25,236.833,97.8z"/>
	<path fill="#E9CB1C" d="M308.7,138.436c15.194,11.343,34.46,18.641,47.351,32.287c1.399,11.515-2.817,28.647,2.154,36.59
		c3.442-3.723,8.049-6.307,12.915-8.609v-38.742C350.478,153.738,328.651,118.676,308.7,138.436z"/>
	<path fill="#0FA9BE" d="M391.07,145.065l-58.029-33.147l-57.703,33.663l0.301,66.811l58.008,33.146l57.705-33.643L391.07,145.065z
		 M371.12,198.703c-4.866,2.303-9.472,4.886-12.914,8.61c-4.973-7.943-0.755-25.076-2.154-36.591
		c-12.891-13.646-32.156-20.944-47.351-32.287c19.95-19.76,41.776,15.303,62.42,21.525L371.12,198.703L371.12,198.703z"/>
	<path fill="none" d="M371.12,159.96v38.743c-4.866,2.303-9.472,4.886-12.914,8.61c-4.973-7.943-0.755-25.076-2.154-36.591
		c-12.891-13.646-32.156-20.944-47.351-32.287C328.651,118.676,350.478,153.738,371.12,159.96z"/>
	<path fill="#010101" d="M371.12,159.96v38.743c-4.866,2.303-9.472,4.886-12.914,8.61c-4.973-7.943-0.755-25.076-2.154-36.591
		c-12.891-13.646-32.156-20.944-47.351-32.287C328.651,118.676,350.478,153.738,371.12,159.96z"/>
	<path fill="#010101" d="M280.718,448.39c0.731,22.897-9.471,58.951-21.521,79.639c-4.717,8.069-23.207,33.487-34.438,34.438
		c-16.619,1.42-28.692-22.043-38.744-34.438c-34.092-42.104-64.809-82.33-96.858-122.688
		C139.867,351.637,277.643,352.197,280.718,448.39z"/>
</g>
</svg>
